<?xml version="1.0" encoding="UTF-8"?>
<svg id="Layer_2" data-name="Layer 2" xmlns="http://www.w3.org/2000/svg" xmlns:xlink="http://www.w3.org/1999/xlink" viewBox="0 0 438.19 96.86">
  <defs>
    <style>
      .cls-1 {
        fill: #fff;
      }

      .cls-2 {
        fill: #e64514;
      }

      .cls-3 {
        clip-path: url(#clippath);
      }
    </style>
    <clipPath id="clippath">
      <path class="cls-1" d="M302.03,39.31h5.1c1.63,0,3.08.37,4.35,1.13,1.27.75,2.27,1.81,2.99,3.17.73,1.36,1.09,2.93,1.09,4.7s-.34,3.29-1.02,4.65c-.68,1.36-1.63,2.41-2.84,3.15-1.21.74-2.6,1.11-4.17,1.11h-5.5v-17.91ZM293.91,32.7v31.08h13.08c3.31,0,6.25-.65,8.8-1.95,2.55-1.3,4.54-3.13,5.94-5.5,1.4-2.36,2.11-5.07,2.11-8.11s-.7-5.74-2.08-8.09c-1.39-2.35-3.33-4.17-5.83-5.48-2.5-1.3-5.37-1.95-8.62-1.95h-13.39ZM337.76,39.18h5.9c1.65,0,2.93.41,3.83,1.22.9.81,1.35,1.98,1.35,3.48s-.45,2.76-1.35,3.59c-.9.83-2.18,1.24-3.83,1.24h-5.9v-9.54ZM329.65,32.7v31.08h8.11v-8.6h6.03l4.52,8.6h9.18l-6.48-10.15c1.81-.94,3.18-2.27,4.13-3.97.94-1.7,1.42-3.72,1.42-6.05,0-3.46-1.13-6.14-3.39-8.05-2.26-1.91-5.44-2.86-9.56-2.86h-13.97ZM363.52,63.78h8.11v-31.08h-8.11v31.08ZM400.64,32.7l-7.8,22.48-7.76-22.48h-8.73l12.06,31.08h8.42l12.15-31.08h-8.34ZM413.67,32.7v31.08h24.46v-6.47h-16.35v-5.85l14.81-.04v-6.43h-14.81v-5.81h16.4v-6.47h-24.52Z"/>
    </clipPath>
  </defs>
  <g id="Layer_1-2" data-name="Layer 1">
    <g>
      <path class="cls-2" d="M48.43,0C21.69,0,0,21.68,0,48.43s21.69,48.43,48.43,48.43,48.43-21.68,48.43-48.43S75.18,0,48.43,0"/>
      <path class="cls-1" d="M34.22,29.21h-1.62c-3.07,0-4.74,1.73-4.74,5.18v16.67c0,4.29-1.45,5.8-4.85,5.8-2.68,0-4.85-1.17-6.58-3.29-.17-.22-3.68,1.45-3.68,5.57,0,4.46,4.18,7.19,11.93,7.19,9.42,0,14.38-4.74,14.38-15.1v-16.83c0-3.45-1.67-5.18-4.85-5.18M48.81,37.63h-1.11c-2.73,0-4.79,1.28-4.79,5.18v17.84c0,3.96,2.01,5.18,4.9,5.18h1.11c2.73,0,4.68-1.34,4.68-5.18v-17.84c0-4.01-1.9-5.18-4.79-5.18M48.2,24.7c-3.45,0-5.63,1.95-5.63,5.02s2.23,5.07,5.8,5.07,5.63-1.95,5.63-5.07-2.23-5.02-5.8-5.02M71.75,37.35c-9.14,0-15.22,5.8-15.22,14.44s5.85,14.55,15.05,14.55,15.16-5.68,15.16-14.49-5.96-14.49-14.99-14.49M71.64,58.14c-3.57,0-6.02-2.62-6.02-6.35s2.51-6.3,6.02-6.3,6.02,2.62,6.02,6.35-2.56,6.3-6.02,6.3"/>
      <polygon class="cls-1" points="144.43 32.78 152.81 32.78 142.25 64 133.88 64 127.96 42.76 121.95 64 113.58 64 103.07 32.78 111.84 32.78 117.98 55.58 124.13 32.78 132.1 32.78 138.33 55.58 144.43 32.78"/>
      <path class="cls-1" d="M179.64,34.38c2.57,1.4,4.59,3.31,6.05,5.75,1.47,2.43,2.21,5.16,2.21,8.19s-.74,5.82-2.21,8.28c-1.47,2.46-3.49,4.41-6.05,5.83-2.57,1.43-5.44,2.14-8.62,2.14s-6.05-.71-8.62-2.12c-2.57-1.41-4.58-3.35-6.06-5.83-1.47-2.48-2.2-5.25-2.2-8.3s.73-5.76,2.2-8.19c1.47-2.44,3.49-4.35,6.06-5.75,2.57-1.39,5.44-2.09,8.62-2.09s6.05.7,8.62,2.09M166.81,40.4c-1.32.8-2.37,1.91-3.14,3.32-.77,1.41-1.16,2.96-1.16,4.65s.39,3.29,1.18,4.7c.79,1.41,1.83,2.52,3.14,3.34,1.31.82,2.73,1.23,4.27,1.23s2.96-.41,4.25-1.23c1.29-.82,2.31-1.93,3.05-3.34.74-1.41,1.11-2.98,1.11-4.7s-.37-3.24-1.11-4.65c-.74-1.41-1.76-2.52-3.05-3.32-1.29-.8-2.71-1.2-4.25-1.2s-2.98.4-4.3,1.2"/>
      <path class="cls-1" d="M211.58,64l-4.54-8.64h-6.05v8.64h-8.15v-31.22h14.03c4.13,0,7.33.96,9.6,2.87,2.27,1.92,3.41,4.61,3.41,8.08,0,2.35-.47,4.37-1.42,6.08-.95,1.71-2.33,3.03-4.14,3.99l6.5,10.2h-9.22ZM200.99,48.86h5.92c1.66,0,2.94-.41,3.85-1.25.91-.83,1.36-2.03,1.36-3.61s-.45-2.68-1.36-3.5c-.91-.82-2.19-1.23-3.85-1.23h-5.92v9.58Z"/>
      <polygon class="cls-1" points="225.97 32.78 234.12 32.78 234.12 57.05 247.34 57.05 247.34 64 225.97 64 225.97 32.78"/>
      <path class="cls-1" d="M274.03,34.74c2.51,1.31,4.46,3.14,5.86,5.5,1.4,2.36,2.09,5.07,2.09,8.13s-.71,5.78-2.12,8.15c-1.41,2.37-3.4,4.21-5.97,5.52-2.57,1.31-5.51,1.96-8.84,1.96h-13.14v-31.22h13.45c3.27,0,6.15.65,8.66,1.96M269.78,56.29c1.22-.74,2.17-1.8,2.85-3.16.68-1.36,1.03-2.92,1.03-4.68s-.36-3.35-1.09-4.72c-.73-1.36-1.73-2.42-3-3.18-1.28-.75-2.73-1.13-4.36-1.13h-5.12v17.99h5.52c1.57,0,2.97-.37,4.19-1.11"/>
      <g>
        <path class="cls-1" d="M302.03,39.31h5.1c1.63,0,3.08.37,4.35,1.13,1.27.75,2.27,1.81,2.99,3.17.73,1.36,1.09,2.93,1.09,4.7s-.34,3.29-1.02,4.65c-.68,1.36-1.63,2.41-2.84,3.15-1.21.74-2.6,1.11-4.17,1.11h-5.5v-17.91ZM293.91,32.7v31.08h13.08c3.31,0,6.25-.65,8.8-1.95,2.55-1.3,4.54-3.13,5.94-5.5,1.4-2.36,2.11-5.07,2.11-8.11s-.7-5.74-2.08-8.09c-1.39-2.35-3.33-4.17-5.83-5.48-2.5-1.3-5.37-1.95-8.62-1.95h-13.39ZM337.76,39.18h5.9c1.65,0,2.93.41,3.83,1.22.9.81,1.35,1.98,1.35,3.48s-.45,2.76-1.35,3.59c-.9.83-2.18,1.24-3.83,1.24h-5.9v-9.54ZM329.65,32.7v31.08h8.11v-8.6h6.03l4.52,8.6h9.18l-6.48-10.15c1.81-.94,3.18-2.27,4.13-3.97.94-1.7,1.42-3.72,1.42-6.05,0-3.46-1.13-6.14-3.39-8.05-2.26-1.91-5.44-2.86-9.56-2.86h-13.97ZM363.52,63.78h8.11v-31.08h-8.11v31.08ZM400.64,32.7l-7.8,22.48-7.76-22.48h-8.73l12.06,31.08h8.42l12.15-31.08h-8.34ZM413.67,32.7v31.08h24.46v-6.47h-16.35v-5.85l14.81-.04v-6.43h-14.81v-5.81h16.4v-6.47h-24.52Z"/>
        <g class="cls-3">
          <rect class="cls-1" x="293.91" y="32.7" width="144.28" height="31.08"/>
        </g>
      </g>
    </g>
  </g>
</svg>